PathFileType	4	(X/Y/Z)	C:/Users/opensim2020/Desktop/walking_exp_matlab/subject02_walking04_straight_03.trc	
DataRate	CameraRate	NumFrames	NumMarkers	Units	OrigDataRate	OrigDataStartFrame	OrigNumFrames	
100.00	100.00	8	42	mm	100.00	2261	222	
Frame#	Time	LFHD			RFHD			LBHD			RBHD			C7			T10			CLAV			STRN			RBAK			LSHO			LUPA			LELB			LFRM			LWRA			LWRB			LFIN			RSHO			RUPA			RELB			RFRM			RWRA			RWRB			RFIN			LASI			RASI			LPSI			RPSI			LTHI			LKNE			LTIB			LANK			LHEE			LTOE			RTHI			RKNE			RTIB			RANK			RHEE			RTOE			*39			*40			*41			
		X1	Y1	Z1	X2	Y2	Z2	X3	Y3	Z3	X4	Y4	Z4	X5	Y5	Z5	X6	Y6	Z6	X7	Y7	Z7	X8	Y8	Z8	X9	Y9	Z9	X10	Y10	Z10	X11	Y11	Z11	X12	Y12	Z12	X13	Y13	Z13	X14	Y14	Z14	X15	Y15	Z15	X16	Y16	Z16	X17	Y17	Z17	X18	Y18	Z18	X19	Y19	Z19	X20	Y20	Z20	X21	Y21	Z21	X22	Y22	Z22	X23	Y23	Z23	X24	Y24	Z24	X25	Y25	Z25	X26	Y26	Z26	X27	Y27	Z27	X28	Y28	Z28	X29	Y29	Z29	X30	Y30	Z30	X31	Y31	Z31	X32	Y32	Z32	X33	Y33	Z33	X34	Y34	Z34	X35	Y35	Z35	X36	Y36	Z36	X37	Y37	Z37	X38	Y38	Z38	X39	Y39	Z39	X40	Y40	Z40	X41	Y41	Z41	X42	Y42	Z42	

56	0.550	-1101.03662	-477.55002	1725.93347	-959.78821	-498.55069	1706.99695	-1128.69800	-603.40039	1647.23877	-990.81323	-635.98407	1626.45166	-1060.72363	-668.57550	1512.00317	-1055.65930	-730.86945	1237.11926	-1062.35925	-530.88593	1437.83679	-1054.36597	-486.14001	1265.48987	-1002.47357	-736.47687	1338.53357	-1235.32117	-580.89514	1486.46045	-1328.97559	-548.53381	1294.09192	-1350.94434	-505.83673	1159.29309	-1354.26538	-431.32297	1048.03601	-1306.62439	-326.27274	970.01196	-1345.80750	-360.98425	947.50659	-1344.22253	-309.52921	906.35803	-869.39728	-603.60181	1472.39465	-788.59149	-660.83270	1290.18469	-767.59448	-663.77277	1144.24084	-741.81238	-648.72070	1025.46704	-752.82404	-609.02911	894.64453	-725.97180	-659.57129	895.69708	-717.71625	-627.27509	831.32593	-1188.96692	-504.04922	971.45203	-932.57971	-494.12085	965.63135	-1100.64429	-711.62634	1016.03131	-986.23859	-712.63501	1014.33954	-1227.84387	-608.35535	662.81183	-1193.66626	-671.53156	467.63306	-1191.45142	-760.12701	292.98486	-1151.60474	-793.90240	71.81614	-1100.39783	-833.47699	46.37902	-1165.04541	-639.90991	29.87211	-846.93683	-502.61215	668.98755	-878.42664	-422.28531	477.37735	-859.86066	-397.25949	293.19739	-880.84491	-344.58405	104.52235	-936.98230	-353.98853	39.17232	-864.71942	-183.94176	98.30952	-1027.09607	-593.43604	1787.79346						 
57	0.560	-1100.12561	-468.64496	1724.88464	-958.83215	-489.89255	1705.77625	-1128.06750	-594.51306	1646.18213	-990.17725	-626.86890	1625.34741	-1059.96790	-659.72888	1510.78479	-1054.73242	-721.67432	1235.86548	-1061.82104	-521.70941	1436.68982	-1054.00830	-476.92618	1264.32861	-1001.79730	-727.12323	1337.10962	-1234.67493	-572.00098	1485.35010	-1328.66736	-539.34015	1293.30798	-1350.96716	-496.07996	1158.56006	-1354.14075	-420.56046	1047.85461	-1306.22351	-315.00482	970.98938	-1345.40759	-349.39502	948.00238	-1343.78638	-297.47714	907.53247	-868.77985	-594.81488	1470.90125	-788.09235	-652.21716	1288.90576	-766.97760	-655.75616	1143.17004	-741.27710	-640.58679	1023.85718	-752.20569	-601.44666	893.38721	-725.45630	-652.24945	894.44928	-717.13123	-620.19196	829.93213	-1189.20837	-495.82568	969.96027	-932.87457	-484.15268	964.14801	-1099.18884	-702.75189	1014.92279	-984.84943	-702.99017	1013.19275	-1227.61047	-602.70654	662.01849	-1193.25330	-667.11639	467.30710	-1190.89722	-757.55743	293.65439	-1151.28491	-793.53186	72.75755	-1099.97778	-833.21918	47.60023	-1165.14453	-639.83649	29.82046	-846.75562	-494.48883	667.36615	-879.33783	-413.30295	476.01233	-860.35016	-383.26767	292.88211	-881.31433	-325.31235	105.24582	-936.94397	-333.69250	39.80793	-866.90656	-163.88832	103.11987	-1026.13318	-584.65100	1786.61011						 
58	0.570	-1099.09692	-459.68738	1723.89636	-957.93451	-480.82324	1704.48450	-1127.29163	-585.56915	1645.15247	-989.29663	-617.75494	1623.94543	-1059.17029	-650.64435	1509.52271	-1053.66565	-712.77539	1234.77295	-1061.09375	-512.52942	1435.55750	-1053.52649	-467.59546	1263.17981	-1001.04694	-718.43439	1336.03455	-1233.96143	-563.04016	1484.26038	-1328.46899	-530.17194	1292.47583	-1350.75146	-486.52094	1157.77368	-1353.84900	-410.23816	1047.58081	-1305.82056	-304.10791	971.60303	-1344.89856	-338.12631	948.55127	-1343.29016	-285.98141	908.40039	-867.75903	-585.62915	1469.81165	-787.42017	-643.66187	1287.68115	-766.33881	-647.82391	1142.02271	-740.60626	-632.51428	1022.63635	-751.28308	-593.90430	892.01556	-724.77252	-644.69806	893.25409	-716.29041	-612.92926	828.54346	-1189.49841	-487.56815	968.45874	-933.13965	-474.04968	962.69586	-1097.75696	-693.76172	1013.80902	-983.22668	-693.12347	1012.14020	-1227.37561	-596.86768	661.34717	-1192.91785	-662.49982	467.10822	-1190.36121	-754.84778	294.49484	-1151.03406	-793.06372	73.81943	-1099.72095	-832.85052	49.31689	-1165.25159	-639.79150	29.74307	-846.46790	-485.33743	665.69550	-880.05499	-404.03247	474.59937	-861.03546	-370.04605	292.33548	-881.66498	-307.78745	106.12939	-937.06012	-314.88223	40.38707	-868.87372	-145.82619	106.93495	-1025.08655	-575.79822	1785.31287						 
59	0.580	-1097.97815	-450.66986	1722.84912	-956.84412	-472.05878	1703.50110	-1126.27881	-576.47498	1644.14490	-988.99243	-609.75763	1622.94507	-1058.20435	-641.38733	1508.27832	-1052.52124	-703.10736	1233.38940	-1060.23889	-503.25476	1434.41113	-1052.97168	-458.18631	1262.05847	-1000.16394	-709.40771	1334.59961	-1233.06812	-554.05591	1483.17334	-1327.61914	-521.17517	1291.38416	-1350.35022	-477.13235	1156.87756	-1353.35303	-400.26154	1047.15027	-1305.42871	-293.52301	971.99091	-1344.51074	-327.43671	948.58020	-1342.90808	-274.94055	908.90332	-866.97339	-576.28778	1468.32178	-786.64624	-634.45422	1286.35291	-765.51410	-639.87079	1140.76282	-739.76086	-624.15137	1021.42108	-750.42200	-585.97815	890.63708	-723.87384	-636.81824	892.02222	-715.41669	-605.38348	827.25476	-1189.74976	-479.20560	966.93555	-933.30756	-463.78827	961.27106	-1096.07642	-684.68109	1012.75525	-981.49353	-683.23541	1011.09467	-1227.12952	-590.93756	660.70062	-1192.65442	-657.74768	467.02310	-1189.89453	-752.03198	295.47092	-1150.79663	-792.57800	75.01875	-1099.36230	-832.54529	50.92013	-1165.34290	-639.73779	29.69500	-846.22382	-475.86880	664.23523	-880.62866	-393.80075	473.27945	-861.44989	-357.46576	291.80576	-882.00952	-292.02390	106.56602	-937.51923	-298.76440	40.65306	-870.37622	-129.90990	109.56345	-1023.97388	-566.72382	1784.32544						 
60	0.590	-1096.82617	-441.53781	1721.85217	-955.53235	-462.87485	1702.26306	-1125.13977	-567.34167	1643.16431	-987.29486	-599.90338	1621.71301	-1057.18384	-631.98639	1507.02966	-1051.26416	-693.62286	1232.22180	-1059.26416	-493.86444	1433.33411	-1052.21289	-448.67786	1260.97742	-999.07086	-699.45404	1333.47803	-1232.11987	-544.95392	1482.08252	-1326.70190	-512.23492	1290.20459	-1349.69812	-467.99112	1155.94971	-1352.80286	-390.59683	1046.50183	-1305.09558	-283.43942	971.92523	-1343.93164	-317.47397	948.04431	-1342.49524	-264.55756	908.99780	-865.82080	-566.99286	1467.06213	-785.86761	-625.46716	1285.12427	-764.84692	-630.76459	1139.46484	-738.88690	-616.26233	1020.40869	-749.39966	-577.84924	889.27271	-722.95935	-628.58075	890.93402	-714.46033	-597.91852	826.01318	-1189.94409	-470.75351	965.44934	-933.34546	-453.36310	959.91052	-1094.40588	-675.43604	1011.64893	-979.73010	-673.20917	1010.02905	-1226.80933	-584.76740	660.14246	-1192.48462	-652.78284	466.96927	-1189.48694	-749.04462	296.59296	-1150.71240	-792.04071	76.40826	-1099.21960	-832.23779	53.00674	-1165.46814	-639.65314	29.60923	-845.94635	-465.55670	663.00549	-880.98718	-383.45181	472.40048	-862.08441	-345.57004	291.17993	-882.86224	-278.64685	106.49374	-938.29938	-284.55814	40.41131	-871.61023	-116.27434	110.63229	-1022.60284	-557.69781	1783.21619						 
61	0.600	-1095.46960	-432.41357	1721.00085	-954.26117	-453.67462	1701.14722	-1124.38879	-558.31262	1642.34253	-986.43750	-591.01794	1620.87280	-1055.89111	-622.80780	1505.98499	-1049.86292	-684.01752	1231.10156	-1058.17627	-484.41827	1432.29175	-1051.41650	-439.09567	1260.00012	-997.77014	-689.74146	1332.11060	-1231.09656	-535.80170	1481.10779	-1325.84656	-503.35977	1289.30481	-1348.91882	-458.99753	1154.96301	-1352.27466	-381.26694	1045.75806	-1304.71045	-273.73083	971.67163	-1343.19519	-307.75403	947.60345	-1342.11511	-254.66110	908.80518	-864.73810	-557.46497	1465.76624	-784.96100	-615.95459	1283.81213	-764.07257	-621.08417	1138.22083	-737.76978	-607.27045	1019.01166	-748.32648	-569.47815	887.99493	-722.12555	-620.39044	889.62720	-713.48352	-589.29565	824.63593	-1190.04395	-462.18158	964.09570	-933.25726	-442.81204	958.56628	-1092.53735	-666.08984	1010.61572	-977.84796	-663.08594	1009.09546	-1226.51233	-578.49207	659.66223	-1192.21497	-647.49762	466.98846	-1189.16626	-745.82159	297.81702	-1150.84558	-791.40009	78.01841	-1099.37732	-831.68597	54.97948	-1165.57288	-639.58759	29.48517	-845.60089	-454.70117	662.10107	-880.96002	-372.05878	471.68466	-862.40283	-334.06488	290.49380	-883.80139	-267.17966	105.94899	-939.09332	-273.33618	40.27388	-872.60376	-104.83384	110.00363	-1021.26910	-548.66351	1782.08569						 
62	0.610	-1093.98511	-423.17276	1720.14600	-952.84711	-444.32037	1700.22534	-1123.01147	-548.92395	1641.57800	-984.77844	-581.41980	1619.62122	-1054.63550	-613.13605	1504.87036	-1048.36316	-674.32019	1230.04248	-1057.03003	-474.83646	1431.38306	-1050.38208	-429.44003	1259.07666	-996.42816	-680.13116	1330.81323	-1229.90063	-526.48584	1480.11499	-1324.65112	-494.55374	1288.28113	-1348.09924	-450.18304	1153.94421	-1351.41431	-372.36600	1044.94641	-1304.15820	-264.40833	971.34106	-1342.78162	-298.45251	947.02557	-1341.50964	-245.41115	907.88049	-863.30505	-547.95007	1464.67175	-783.85126	-607.29919	1282.71216	-762.90704	-612.29559	1137.05444	-736.82678	-598.40570	1017.91614	-747.23798	-560.62842	886.73944	-721.12048	-611.45404	888.62183	-712.37732	-581.19427	823.48444	-1189.96814	-453.53720	962.84204	-933.04749	-432.07730	957.32404	-1090.60083	-656.60791	1009.66180	-975.94360	-652.81879	1008.25757	-1226.02747	-571.98389	659.17365	-1191.98181	-641.87421	466.99713	-1188.86987	-742.33984	298.94617	-1151.00732	-790.70789	79.78226	-1099.64087	-831.17828	57.20955	-1165.80042	-639.44574	29.52058	-844.89777	-442.60809	661.63904	-880.76251	-360.47818	471.39804	-862.79706	-323.34613	289.67398	-885.00458	-257.68561	104.82149	-940.65045	-263.97415	39.18378	-873.36139	-95.46924	107.92386	-1019.80444	-539.52130	1781.28613						 
63	0.620	-1092.39258	-413.83133	1719.41138	-951.24280	-434.94507	1699.34082	-1121.50586	-539.61932	1640.69434	-983.45337	-571.97388	1618.71021	-1053.07764	-603.74628	1504.01697	-1046.78345	-664.52869	1229.04285	-1055.74329	-465.27026	1430.52393	-1049.30688	-419.66443	1258.23987	-994.87372	-670.52118	1330.14307	-1228.58289	-517.08514	1479.29004	-1323.53503	-485.83899	1287.48975	-1346.91187	-441.61664	1152.90491	-1350.70447	-363.69962	1043.81226	-1304.09436	-255.62190	970.54291	-1342.12524	-289.87430	945.95630	-1341.28052	-236.68495	907.23468	-861.93152	-538.19012	1463.52405	-782.45837	-598.26239	1281.48840	-761.76575	-602.60858	1135.75293	-735.66412	-589.22510	1016.79517	-746.01398	-551.61688	885.45355	-719.99683	-602.53479	887.43866	-711.19354	-571.90155	822.24597	-1189.64722	-444.62619	961.66931	-932.69147	-421.12061	956.24249	-1088.70349	-646.91101	1008.71191	-974.05316	-642.34259	1007.39154	-1225.62732	-565.17273	658.80841	-1191.77173	-635.84717	467.05054	-1188.75903	-738.43427	300.53870	-1151.34570	-789.84637	81.77190	-1100.02429	-830.46484	59.78642	-1165.91406	-639.22565	29.46174	-843.71741	-429.56940	661.60736	-880.23468	-348.78857	471.02753	-863.25842	-313.49646	288.66949	-886.10846	-249.69113	103.28375	-942.37909	-256.86023	38.04538	-873.99371	-87.80987	104.77134	-1018.15698	-530.18719	1780.17639						 
